<?xml version="1.0" encoding="UTF-8"?>
<svg id="Layer_1" data-name="Layer 1" xmlns="http://www.w3.org/2000/svg" viewBox="0 0 100 100">
  <defs>
    <style>
      .cls-1 {
        fill: #bfdb38;
      }
    </style>
  </defs>
  <path class="cls-1" d="M48.78,23.6c3.98-.17,8.62.78,10.19,4.91,1.77,4.67.22,9.82-3.31,13.18-.54-.04-1.05-.22-1.59-.28-.87-.1-1.73-.05-2.59.11-.63.11-1.21.35-1.84.46-1.24-1.36-2.55-2.64-4.28-3.37-3.31-1.42-9.54-.23-10.52-4.99-1.41-6.84,8.84-9.81,13.93-10.03Z"/>
  <path class="cls-1" d="M44.79,53.85c-1.35,1.01-2.63,2.44-3.33,3.99-1.49,3.28-.35,9.46-4.76,10.68-5.68,1.57-8.75-5.31-9.78-9.7-1.13-4.82-1.11-12.46,4.51-14.42,4.65-1.62,9.69-.11,12.99,3.4-.02.56-.24,1.1-.28,1.66-.12,1.51.13,2.98.65,4.39Z"/>
  <path class="cls-1" d="M70.18,32.04c4.93-.56,7.47,4.39,8.68,8.39,1.47,4.86,1.99,13.38-3.72,15.72-4.39,1.8-9.99.41-13.21-3.02-.04-.05-.12-.09-.14-.15-.11-.25.22-1.39.25-1.78.11-1.47-.11-2.92-.64-4.28,1.41-1.21,2.68-2.55,3.42-4.29,1.41-3.31.29-10.01,5.36-10.58Z"/>
  <path class="cls-1" d="M57.02,58.45c.66.89,1.61,1.7,2.56,2.28,2.8,1.74,5.14,1.13,8.02,2.03,5.52,1.72,4.69,7.46.53,10.32-5.34,3.67-18.56,5.93-21.08-2.08-1.37-4.35-.15-8.98,3.03-12.18,2.27.8,4.76.63,6.94-.38Z"/>
  <path class="cls-1" d="M52.71,42.38c5.8-.3,9.96,5.66,7.74,11.02-2.49,6.02-10.93,6.65-14.22,1.02-3.04-5.19.49-11.73,6.48-12.04ZM52.57,46.45c-5.31.64-3.89,8.94,1.4,7.74,4.74-1.08,3.6-8.34-1.4-7.74Z"/>
  <path class="cls-1" d="M52.57,46.45c5-.61,6.15,6.65,1.4,7.74-5.29,1.21-6.71-7.09-1.4-7.74ZM52.64,47.47c-3.56.46-3.08,6.04.63,5.8s3.48-6.33-.63-5.8Z"/>
  <path class="cls-1" d="M52.64,47.47c4.11-.53,4.52,5.56.63,5.8s-4.2-5.34-.63-5.8Z"/>
</svg>