<?xml version="1.0" encoding="UTF-8"?>
<svg id="Layer_1" data-name="Layer 1" xmlns="http://www.w3.org/2000/svg" viewBox="0 0 100 100">
  <defs>
    <style>
      .cls-1 {
        fill: #bfdb38;
      }

      .cls-2 {
        fill: none;
      }
    </style>
  </defs>
  <path class="cls-1" d="M85.06,55.91c-.32.3-.66,1.73-.96,2.28-5.47,9.98-15.43,14.58-26.64,11.8l-6.5-13.37-6.04,13.45-6.32.85c-7.56-.26-14.57-3.73-18.78-10.06-1.08-1.63-2.07-4.79-2.89-5.89-.57-.77-3.08-.75-4.41-3.71-.76-1.69-.82-8.35-.49-10.3s1.88-3.5,3.49-4.56c1.34-.89,1.48-1.03,2.68-2,9.31-7.51,35.06-7.46,46.62-6.07,6.03.73,15.83,2.4,20.05,6.97.32.35.35.87.65,1.17.86.87,2.54,1.04,3.74,2.75,1.58,2.26,1.43,7.74,1.2,10.52-.22,2.62-1.45,4.17-3.64,5.46-.5.29-1.48.44-1.77.71ZM59.59,67.22c8.61,1.94,17.98-2.54,21.74-10.5,2.4-5.07.41-13.31,1.08-18.95-.17-1.27-1.95-2.15-3.04-2.68-12.11-5.9-43.92-5.75-56.14-.08-1.58.73-3.3,1.4-3.47,3.28-.3,3.24-.4,12.21.07,15.28.21,1.36,1.68,4.12,2.48,5.32,4.59,6.92,12.36,9.91,20.54,8.34l5.55-12.25c1.35-2.09,3.83-2.18,5.38-.26l5.82,12.51Z"/>
  <path class="cls-2" d="M59.59,67.22l-5.82-12.51c-1.55-1.92-4.03-1.83-5.38.26l-5.55,12.25c-8.18,1.57-15.94-1.42-20.54-8.34-.8-1.2-2.26-3.95-2.48-5.32-.48-3.07-.38-12.04-.07-15.28.18-1.89,1.9-2.55,3.47-3.28,12.21-5.66,44.03-5.82,56.14.08,1.09.53,2.87,1.41,3.04,2.68-.67,5.64,1.31,13.88-1.08,18.95-3.76,7.95-13.13,12.44-21.74,10.5ZM79.23,38.48c-9.47-4.18-20.39-4.7-30.62-4.59l-19.75,27.67c3.54,2.27,7.44,3.41,11.7,2.74,2.39-3.34,4.06-11.71,7.88-13.43,3.88-1.76,6.91.17,8.71,3.59,1.68,3.19,2.87,6.71,4.5,9.92,4.51.47,8.74-.48,12.3-3.34,2.05-1.65,5.1-5.51,5.34-8.17.41-4.56-.29-9.77-.05-14.39ZM39.78,34.54c-5.66.43-11.73,1.41-16.76,4.15l-.13,14.17,1.31,3.24,15.59-21.57Z"/>
  <path class="cls-1" d="M79.29,52.87c-.24,2.65-3.29,6.51-5.35,8.17-3.55,2.85-7.78,3.81-12.29,3.34-1.63-3.22-2.82-6.74-4.5-9.93-1.8-3.42-4.83-5.34-8.71-3.59-3.81,1.73-5.49,10.09-7.88,13.43-4.25.68-8.15-.47-11.69-2.73-1.08-.99-2.38-2.37-3.61-4.18-1.12-1.66-1.87-3.23-2.38-4.52.05-4.72.09-9.45.13-14.17,2.35-1.06,5.07-2.1,8.15-2.94,6.83-1.87,12.91-2.1,17.45-1.87,10.23-.11,21.15.42,30.62,4.6-.23,4.62.47,9.83.06,14.39Z"/>
</svg>