<?xml version="1.0" encoding="UTF-8"?>
<svg id="Layer_1" data-name="Layer 1" xmlns="http://www.w3.org/2000/svg" viewBox="0 0 100 100">
  <defs>
    <style>
      .cls-1 {
        fill: #bfdb38;
      }
    </style>
  </defs>
  <path class="cls-1" d="M83.96,59.64c-.6,6.18-5.56,11.16-11.76,11.73h-31.88c-6.62-.56-10.94-7.2-8.61-13.51,1.26-3.4,4.41-5.91,8-6.41-.63-5.81,2.47-11.51,7.62-14.18,8.06-4.18,18.02.06,20.33,8.81,5.31-1.36,10.8.59,13.95,5.04,1.23,1.74,2.17,4.15,2.34,6.29v2.25Z"/>
  <path class="cls-1" d="M12.5,43.1v-.64c.27-.69.67-1.04,1.42-1.11,2.28.13,4.81-.21,7.06-.01,2.05.18,1.99,2.73.16,2.9-2.37.21-5.06-.16-7.46-.01-.6-.1-1-.57-1.17-1.12Z"/>
  <path class="cls-1" d="M36.82,49.28c-2.02.7-3.93,1.93-5.29,3.59-.17.11-1.07-.54-1.26-.67-5.58-3.86-6.59-11.85-2.07-16.96s12.51-5.17,17.06-.11c.03.11-.06.13-.13.18-.44.32-1,.59-1.47.94-4.06,3.04-6.66,7.93-6.84,13.03Z"/>
  <path class="cls-1" d="M52.71,25.22c1.37-.22,2.24,1.33,1.34,2.38-1.67,1.5-3.19,3.46-4.89,4.91-.65.56-1.22.92-2.04.35-.71-.49-.85-1.32-.36-2.04l5.25-5.27c.19-.15.47-.3.7-.34Z"/>
  <path class="cls-1" d="M25.32,52.52c1.42-.29,2.35,1.28,1.42,2.38-1.71,1.43-3.36,3.8-5.1,5.1-1.53,1.15-3.19-.5-2.11-1.95,1.75-1.47,3.41-3.83,5.17-5.19.15-.11.45-.31.62-.34Z"/>
  <path class="cls-1" d="M36.4,18.55c.75-.14,1.63.19,1.77,1,.17,1.01.02,1.96.02,2.96,0,1.59.22,3.3,0,4.89-.2,1.44-2.62,1.53-2.8-.15-.26-2.37.19-5.2,0-7.62.13-.49.49-.97,1.02-1.07Z"/>
  <path class="cls-1" d="M20.35,25.22c.36-.06.8,0,1.11.22l5.42,5.42c.84,1.34-.64,2.91-2,2l-5.38-5.37c-.66-.81-.17-2.1.86-2.27Z"/>
</svg>